HIERARCHY
ROOT Hips
{
	OFFSET 0.000000 0.000000 0.000000
	CHANNELS 6 Xposition Yposition Zposition Zrotation Yrotation Xrotation 
	JOINT LHipJoint
	{
		OFFSET 0.000000 0.000000 0.000000
		CHANNELS 3 Zrotation Yrotation Xrotation
		JOINT LeftUpLeg
		{
			OFFSET 1.363060 -1.794630 0.839290
			CHANNELS 3 Zrotation Yrotation Xrotation
			JOINT LeftLeg
			{
				OFFSET 2.448110 -6.726130 0.000000
				CHANNELS 3 Zrotation Yrotation Xrotation
				JOINT LeftFoot
				{
					OFFSET 2.562200 -7.039590 0.000000
					CHANNELS 3 Zrotation Yrotation Xrotation
					JOINT LeftToeBase
					{
						OFFSET 0.157640 -0.433110 2.322550
						CHANNELS 3 Zrotation Yrotation Xrotation
						End Site
						{
							OFFSET 0.000000 0.000000 0.000000
						}
					}
				}
			}
		}
	}
	JOINT RHipJoint
	{
		OFFSET 0.000000 0.000000 0.000000
		CHANNELS 3 Zrotation Yrotation Xrotation
		JOINT RightUpLeg
		{
			OFFSET -1.305520 -1.794630 0.839290
			CHANNELS 3 Zrotation Yrotation Xrotation
			JOINT RightLeg
			{
				OFFSET -2.542530 -6.985550 0.000000
				CHANNELS 3 Zrotation Yrotation Xrotation
				JOINT RightFoot
				{
					OFFSET -2.568260 -7.056230 0.000000
					CHANNELS 3 Zrotation Yrotation Xrotation
					JOINT RightToeBase
					{
						OFFSET -0.164730 -0.452590 2.363150
						CHANNELS 3 Zrotation Yrotation Xrotation
						End Site
						{
							OFFSET 0.000000 0.000000 0.000000
						}
					}
				}
			}
		}
	}
}
MOTION
Frames: 30
Frame Time: 0.008333
-2.463079 16.732336 -1.579613 -159.089677 73.700904 -153.465014 -10.186290 1.230848 3.320460 -20.267689 -0.013643 -27.058259 -2.579544 -0.720834 14.184226 1.736451 6.624783 -13.498201 179.204200 -0.000001 -0.970499 9.971586 -4.122655 -3.696598 2.992860 -26.392182 -10.346387 0.173858 -3.472060 49.335760 -0.056342 9.173338 17.290852 3.777700 -0.000000 -83.361000
-2.305530 16.706899 -1.633735 -161.184739 72.893481 -155.370203 -10.053225 1.314954 3.363671 -20.830915 -0.586454 -26.989131 -2.605142 -0.612331 15.402855 1.739159 6.531676 -13.761398 179.167700 -0.000000 -3.134400 10.185411 -3.933250 -3.648085 2.400456 -25.947249 -11.953332 -0.084731 -3.606958 52.401428 -0.238226 8.287223 18.365028 3.664000 0.000000 -80.913000
-2.151658 16.684362 -1.689430 -163.022672 72.079933 -156.944870 -9.939718 1.384271 3.404779 -21.358811 -1.128634 -26.958301 -2.629611 -0.514033 16.521892 1.735587 6.400044 -14.017276 179.136400 0.000000 -5.001300 10.354940 -3.736524 -3.546763 2.001575 -25.171066 -13.654590 -0.325961 -3.736229 55.321935 -0.423457 6.869033 18.881149 3.222100 -0.000000 -77.888999
-2.001587 16.665367 -1.747071 -164.617292 71.273339 -158.214575 -9.846991 1.438720 3.444223 -21.833680 -1.655475 -26.919249 -2.652119 -0.428909 17.494325 1.722359 6.224618 -14.235857 179.115401 0.000000 -6.553400 10.486277 -3.533101 -3.396449 1.759692 -24.084919 -15.424247 -0.554459 -3.857799 58.060286 -0.610656 5.030988 18.854361 2.518500 0.000001 -74.577700
-1.855437 16.650397 -1.807128 -165.972527 70.481945 -159.196668 -9.777365 1.478244 3.480345 -22.237711 -2.168647 -26.838666 -2.672767 -0.358781 18.291345 1.695608 5.992215 -14.400155 179.108600 0.000000 -7.819899 10.583323 -3.323711 -3.199995 1.640328 -22.710933 -17.229363 -0.771546 -3.967294 60.573289 -0.799148 2.919811 18.334841 1.656200 0.000000 -71.130701
-1.713087 16.639741 -1.869935 -167.109731 69.709946 -159.925801 -9.730822 1.503269 3.511660 -22.563457 -2.669843 -26.687868 -2.692217 -0.305273 18.891282 1.653407 5.697234 -14.499251 179.117900 -0.000001 -8.835901 10.650395 -3.108648 -2.960918 1.598446 -21.081585 -19.033995 -0.974980 -4.060163 62.815286 -0.986839 0.701461 17.402809 0.752000 0.000000 -67.678000
-1.574392 16.633499 -1.935732 -168.051125 68.956889 -160.439800 -9.707233 1.514551 3.535537 -22.808103 -3.154832 -26.444023 -2.711180 -0.269079 19.284840 1.595473 5.338527 -14.533799 179.142800 0.000000 -9.668400 10.690250 -2.888885 -2.684050 1.589438 -19.238211 -20.799321 -1.160249 -4.132452 64.740878 -1.168953 -1.462965 16.156588 -0.089800 0.000000 -64.323800
-1.438936 16.631525 -2.004604 -168.833106 68.218496 -160.785248 -9.703737 1.513677 3.553020 -22.977986 -3.629284 -26.094269 -2.730004 -0.250649 19.468590 1.524603 4.929695 -14.507004 179.180700 0.000000 -10.345600 10.705804 -2.665714 -2.374278 1.568235 -17.231617 -22.498017 -1.321812 -4.181963 66.313924 -1.337649 -3.431184 14.696444 -0.792200 0.000000 -61.123600
-1.306275 16.633515 -2.076603 -169.484975 67.487732 -161.002697 -9.718004 1.502494 3.564453 -23.081185 -4.095043 -25.630142 -2.748762 -0.249580 19.448677 1.444774 4.487391 -14.432432 179.227500 -0.000000 -10.928600 10.698182 -2.441342 -2.038432 1.499820 -15.118126 -24.104418 -1.454431 -4.207609 67.504722 -1.483809 -5.097219 13.120250 -1.314299 0.000000 -58.164400
-1.175905 16.639064 -2.151662 -170.038729 66.754843 -161.130917 -9.746445 1.483337 3.573395 -23.128536 -4.561522 -25.051658 -2.766935 -0.265213 19.235590 1.361462 4.036619 -14.323920 179.278400 -0.000000 -11.456700 10.668425 -2.218195 -1.683691 1.358712 -12.958033 -25.606105 -1.553941 -4.209698 68.297248 -1.598707 -6.395382 11.510108 -1.647900 0.000000 -55.493500
-1.047184 16.647606 -2.229732 -170.521497 66.008739 -161.198854 -9.785323 1.458858 3.585388 -23.131382 -5.041705 -24.367315 -2.783672 -0.296481 18.845166 1.280193 3.603246 -14.195623 179.329001 0.000000 -11.953901 10.617219 -1.998642 -1.317144 1.133502 -10.809168 -27.002625 -1.617904 -4.189270 68.689556 -1.676410 -7.303974 9.929531 -1.811600 -0.000000 -53.121900
-0.919568 16.658582 -2.310653 -170.953904 65.237693 -161.227437 -9.831384 1.431592 3.606603 -23.099178 -5.548801 -23.589072 -2.797852 -0.342106 18.294953 1.205515 3.209872 -14.058686 179.375900 0.000000 -12.440400 10.545209 -1.784501 -0.945817 0.824809 -8.724223 -28.300046 -1.645860 -4.147598 68.690874 -1.716082 -7.846825 8.428845 -1.841700 0.000001 -51.076300
-0.792556 16.671445 -2.394196 -171.353180 64.429982 -161.231529 -9.881741 1.403963 3.643483 -23.040052 -6.096058 -22.731026 -2.808331 -0.400624 17.603226 1.140428 2.873057 -13.918574 179.417100 -0.000000 -12.925100 10.453533 -1.576849 -0.575831 0.442569 -6.746843 -29.509862 -1.639528 -4.086179 68.322489 -1.722394 -8.085936 7.041900 -1.782600 -0.000000 -49.349801
-0.665692 16.685622 -2.480141 -171.725788 63.574789 -161.212391 -9.935083 1.378141 3.702133 -22.956588 -6.692685 -21.813392 -2.813878 -0.470177 16.790713 1.085595 2.598419 -13.773949 179.452500 -0.000000 -13.395700 10.343159 -1.375996 -0.211005 0.007581 -4.906826 -30.649961 -1.602698 -4.006183 67.614883 -1.705283 -8.113748 5.789118 -1.678300 -0.000000 -47.906800
-0.538704 16.700704 -2.568212 -172.074681 62.663355 -161.168224 -9.991106 1.355928 3.786644 -22.848724 -7.342260 -20.854351 -2.813529 -0.548638 15.877709 1.039608 2.381361 -13.617523 179.483300 -0.000000 -13.836800 10.215418 -1.181773 0.146241 -0.456265 -3.221754 -31.737056 -1.540779 -3.908887 66.604327 -1.678429 -8.039956 4.676919 -1.566301 0.000000 -46.688300
-0.411463 16.716255 -2.658166 -172.396345 61.689528 -161.092040 -10.050885 1.338764 3.898606 -22.713406 -8.040793 -19.871727 -2.806617 -0.633492 14.884908 0.999102 2.206750 -13.437100 179.512100 -0.000000 -14.227701 10.071504 -0.993938 0.495227 -0.923336 -1.696274 -32.786122 -1.460126 -3.795537 65.329476 -1.657285 -7.977496 3.699696 -1.474900 0.000001 -45.619000
-0.283989 16.731968 -2.749686 -172.685489 60.650247 -160.977109 -10.116339 1.327892 4.036599 -22.546057 -8.776317 -18.880069 -2.792939 -0.721856 13.833615 0.959457 2.051674 -13.218835 179.542000 0.000000 -14.549800 9.912613 -0.812656 0.836591 -1.369655 -0.324483 -33.807751 -1.367202 -3.667432 63.827196 -1.656972 -8.027924 2.842860 -1.422400 -0.000000 -44.622100
-0.156431 16.747553 -2.842361 -172.939699 59.546694 -160.822795 -10.189403 1.324346 4.196069 -22.342387 -9.529757 -17.890310 -2.772964 -0.810589 12.745576 0.915655 1.889232 -12.950384 179.576000 0.000000 -14.791800 9.740229 -0.638604 1.171574 -1.775886 0.906619 -34.806666 -1.267867 -3.525978 62.130125 -1.690517 -8.269066 2.086076 -1.418299 -0.000000 -43.632000
-0.029058 16.762765 -2.935946 -173.154726 58.383494 -160.629276 -10.272027 1.328990 4.369773 -22.100197 -10.276558 -16.909657 -2.747614 -0.896471 11.643348 0.863134 1.692204 -12.624442 179.616100 -0.000000 -14.952400 9.555719 -0.473163 1.501388 -2.127394 2.013391 -35.782283 -1.166527 -3.372464 60.263521 -1.767371 -8.745680 1.407894 -1.465101 0.000000 -42.601800
0.097771 16.777327 -3.029711 -173.346713 57.168336 -160.422690 -10.361145 1.342240 4.548727 -21.832486 -11.000056 -15.928037 -2.718913 -0.976948 10.541367 0.800066 1.448658 -12.235406 179.662200 0.000000 -15.035600 9.363767 -0.317165 1.823417 -2.425796 3.000740 -36.724060 -1.065933 -3.209400 58.249997 -1.891262 -9.457943 0.786205 -1.557200 0.000000 -41.508200
0.223704 16.791129 -3.124060 -173.485804 55.916417 -160.180508 -10.463776 1.365034 4.723723 -21.521104 -11.656282 -14.967499 -2.687259 -1.048800 9.474224 0.723206 1.126018 -11.803018 179.713501 -0.000000 -15.090400 9.161464 -0.175691 2.143510 -2.644760 3.902776 -37.625137 -0.966515 -3.035177 56.089660 -2.062129 -10.381611 0.212502 -1.689200 -0.000000 -40.342199
0.348387 16.803815 -3.217850 -173.615105 54.640379 -159.959555 -10.568141 1.396676 4.885301 -21.205043 -12.249435 -13.995969 -2.655901 -1.111220 8.444457 0.636937 0.746456 -11.330976 179.766300 -0.000000 -15.120200 8.958773 -0.047692 2.451259 -2.808444 4.698228 -38.466452 -0.867215 -2.854091 53.802248 -2.269380 -11.431968 -0.329102 -1.844100 0.000000 -39.135400
0.471749 16.815202 -3.310837 -173.739647 53.359987 -159.773044 -10.670979 1.437123 5.026619 -20.894091 -12.765222 -13.011866 -2.626425 -1.163319 7.470613 0.544561 0.317213 -10.845217 179.817000 -0.000000 -15.168100 8.759275 0.064127 2.744254 -2.912044 5.390471 -39.234721 -0.764935 -2.666811 51.390505 -2.497359 -12.510094 -0.840155 -2.006000 0.000000 -37.937700
0.593588 16.825099 -3.402965 -173.861883 52.095432 -159.631338 -10.768116 1.485586 5.142234 -20.601862 -13.198439 -12.012837 -2.599861 -1.204868 6.568211 0.450889 -0.143506 -10.374494 179.862300 0.000000 -15.265700 8.566926 0.157785 3.017363 -2.952085 5.974591 -39.918752 -0.654684 -2.474525 48.858804 -2.724133 -13.500013 -1.316219 -2.157600 -0.000000 -36.829700
0.714101 16.833304 -3.493878 -173.998565 50.866135 -159.554986 -10.851436 1.541100 5.231083 -20.349570 -13.561645 -10.991804 -2.577515 -1.236833 5.744570 0.362183 -0.602647 -9.944201 179.899800 -0.000000 -15.435300 8.388218 0.232456 3.264775 -2.930404 6.437091 -40.511497 -0.530423 -2.279314 46.217478 -2.923529 -14.280883 -1.749111 -2.281500 0.000000 -35.912299
0.833471 16.839747 -3.583631 -174.151726 49.692335 -159.546163 -10.917250 1.602677 5.292478 -20.146360 -13.861021 -9.952593 -2.559708 -1.259907 5.010296 0.282832 -1.036042 -9.579515 179.928799 0.000000 -15.685700 8.226421 0.287071 3.482313 -2.838168 6.772920 -41.011109 -0.384860 -2.082222 43.474724 -3.069643 -14.750107 -2.122249 -2.365400 0.000000 -35.296700
0.952007 16.844375 -3.672365 -174.323518 48.590320 -159.604932 -10.962133 1.669218 5.328047 -20.000363 -14.108173 -8.900794 -2.546622 -1.274933 4.372391 0.216080 -1.421256 -9.296629 179.950200 -0.000000 -16.007000 8.084401 0.321504 3.667264 -2.667448 6.978673 -41.419987 -0.210327 -1.884073 40.642459 -3.139613 -14.831325 -2.416041 -2.401899 -0.000000 -35.081300
1.070141 16.847220 -3.760338 -174.513169 47.571588 -159.722479 -10.984487 1.740171 5.341875 -19.913077 -14.313598 -7.852678 -2.538402 -1.282401 3.841198 0.162943 -1.747438 -9.102272 179.965400 0.000000 -16.367400 7.963494 0.336233 3.821688 -2.410424 7.059170 -41.750469 0.000298 -1.684697 37.734633 -3.116960 -14.483621 -2.610005 -2.389200 0.000000 -35.326800
1.188197 16.848395 -3.847981 -174.712191 46.645241 -159.887499 -10.986529 1.814820 5.334193 -19.879141 -14.474904 -6.817906 -2.534870 -1.282010 3.421309 0.121799 -2.019249 -8.989803 179.976400 -0.000000 -16.718900 7.862157 0.332913 3.946951 -2.056549 7.028479 -42.006258 0.253181 -1.482664 34.763815 -2.993644 -13.705846 -2.687715 -2.328600 -0.000001 -36.047400
1.306685 16.848104 -3.935726 -174.914882 45.812891 -160.083158 -10.971192 1.893514 5.308781 -19.886820 -14.588818 -5.821965 -2.536391 -1.273013 3.125100 0.088914 -2.256669 -8.943589 179.985400 -0.000000 -16.997800 7.778010 0.313999 4.051535 -1.601777 6.909996 -42.203240 0.551208 -1.275133 31.745673 -2.771897 -12.534467 -2.640937 -2.223700 -0.000001 -37.195300
